<mxfile host="app.diagrams.net" agent="Mozilla/5.0 (Windows NT 10.0; Win64; x64) AppleWebKit/537.36 (KHTML, like Gecko) Chrome/140.0.0.0 Safari/537.36" version="28.2.5">
  <diagram name="Page-1" id="Hl-wVnsXlgHfQjRaBJ3L">
    <mxGraphModel dx="1042" dy="527" grid="1" gridSize="10" guides="1" tooltips="1" connect="1" arrows="1" fold="1" page="1" pageScale="1" pageWidth="850" pageHeight="1100" math="0" shadow="0">
      <root>
        <mxCell id="0" />
        <mxCell id="1" parent="0" />
        <mxCell id="EZjQNCP_da3x3xnNHspA-1" value="" style="group;textShadow=0;shadow=1;" vertex="1" connectable="0" parent="1">
          <mxGeometry x="810" y="1055" width="200" height="90" as="geometry" />
        </mxCell>
        <mxCell id="EZjQNCP_da3x3xnNHspA-2" value="" style="rounded=1;whiteSpace=wrap;html=1;shadow=1;" vertex="1" parent="EZjQNCP_da3x3xnNHspA-1">
          <mxGeometry width="200" height="90" as="geometry" />
        </mxCell>
        <mxCell id="EZjQNCP_da3x3xnNHspA-3" value="" style="shape=image;verticalLabelPosition=bottom;labelBackgroundColor=default;verticalAlign=top;aspect=fixed;imageAspect=0;image=https://opennetworking.org/wp-content/uploads/2018/04/onos-logo-lg.png;" vertex="1" parent="EZjQNCP_da3x3xnNHspA-1">
          <mxGeometry x="57.04" y="16.5" width="85.91" height="57" as="geometry" />
        </mxCell>
        <mxCell id="EZjQNCP_da3x3xnNHspA-4" value="" style="group" vertex="1" connectable="0" parent="1">
          <mxGeometry x="1295" y="625" width="115" height="140" as="geometry" />
        </mxCell>
        <mxCell id="EZjQNCP_da3x3xnNHspA-5" value="" style="rounded=1;whiteSpace=wrap;html=1;fillColor=#dae8fc;strokeColor=none;shadow=1;" vertex="1" parent="EZjQNCP_da3x3xnNHspA-4">
          <mxGeometry width="115" height="140" as="geometry" />
        </mxCell>
        <mxCell id="EZjQNCP_da3x3xnNHspA-6" value="" style="shape=datastore;whiteSpace=wrap;html=1;fillColor=#001F60;strokeColor=light-dark(#ffffff, #ededed);" vertex="1" parent="EZjQNCP_da3x3xnNHspA-4">
          <mxGeometry x="28.75" y="26.923076923076923" width="57.5" height="64.61538461538461" as="geometry" />
        </mxCell>
        <mxCell id="EZjQNCP_da3x3xnNHspA-7" value="&lt;p style=&quot;margin: 0px; padding: 0px; user-select: text; -webkit-user-drag: none; -webkit-tap-highlight-color: transparent; font-family: Calibri; font-size: 13.3333px;&quot;&gt;&lt;span style=&quot;margin: 0px; padding: 0px; user-select: text; -webkit-user-drag: none; -webkit-tap-highlight-color: transparent; font-size: 10pt;&quot; data-colorformula=&quot;THEMEVAL()&quot;&gt;&lt;b&gt;Knowledge Base&lt;/b&gt;&lt;/span&gt;&lt;/p&gt;&lt;p style=&quot;margin: 0px; padding: 0px; user-select: text; -webkit-user-drag: none; -webkit-tap-highlight-color: transparent; font-family: Calibri; font-size: 13.3333px;&quot;&gt;&lt;span style=&quot;margin: 0px; padding: 0px; user-select: text; -webkit-user-drag: none; -webkit-tap-highlight-color: transparent; font-size: 10pt;&quot; data-colorformula=&quot;THEMEVAL()&quot;&gt;&lt;b&gt;(Chroma DB)&lt;/b&gt;&lt;/span&gt;&lt;br&gt;&lt;/p&gt;" style="text;html=1;align=center;verticalAlign=middle;whiteSpace=wrap;rounded=0;labelBackgroundColor=none;" vertex="1" parent="EZjQNCP_da3x3xnNHspA-4">
          <mxGeometry x="4.791666666666667" y="91.53846153846153" width="105.41666666666667" height="32.30769230769231" as="geometry" />
        </mxCell>
        <mxCell id="EZjQNCP_da3x3xnNHspA-8" value="" style="group" vertex="1" connectable="0" parent="1">
          <mxGeometry x="1081.88" y="470" width="115" height="175" as="geometry" />
        </mxCell>
        <mxCell id="EZjQNCP_da3x3xnNHspA-9" value="" style="group" vertex="1" connectable="0" parent="EZjQNCP_da3x3xnNHspA-8">
          <mxGeometry x="-60" y="155" width="115" height="140" as="geometry" />
        </mxCell>
        <mxCell id="EZjQNCP_da3x3xnNHspA-10" value="" style="rounded=1;whiteSpace=wrap;html=1;fillColor=#d5e8d4;strokeColor=none;shadow=1;" vertex="1" parent="EZjQNCP_da3x3xnNHspA-9">
          <mxGeometry width="115" height="140" as="geometry" />
        </mxCell>
        <mxCell id="EZjQNCP_da3x3xnNHspA-11" value="" style="sketch=0;outlineConnect=0;fontColor=#232F3E;gradientColor=none;fillColor=#001F60;strokeColor=none;dashed=0;verticalLabelPosition=bottom;verticalAlign=top;align=center;html=1;fontSize=12;fontStyle=0;aspect=fixed;shape=mxgraph.aws4.application_discovery_service_aws_agentless_collector;" vertex="1" parent="EZjQNCP_da3x3xnNHspA-9">
          <mxGeometry x="20.5" y="20" width="74" height="74" as="geometry" />
        </mxCell>
        <mxCell id="EZjQNCP_da3x3xnNHspA-12" value="&lt;p style=&quot;margin: 0px; padding: 0px; user-select: text; -webkit-user-drag: none; -webkit-tap-highlight-color: transparent; font-family: Calibri; font-size: 13.3333px;&quot;&gt;&lt;b&gt;Prompting Module&lt;/b&gt;&lt;/p&gt;" style="text;html=1;align=center;verticalAlign=middle;whiteSpace=wrap;rounded=0;labelBackgroundColor=none;" vertex="1" parent="EZjQNCP_da3x3xnNHspA-9">
          <mxGeometry x="5" y="100" width="110" height="30" as="geometry" />
        </mxCell>
        <mxCell id="EZjQNCP_da3x3xnNHspA-13" value="" style="group" vertex="1" connectable="0" parent="1">
          <mxGeometry x="630.01" y="625" width="115" height="140" as="geometry" />
        </mxCell>
        <mxCell id="EZjQNCP_da3x3xnNHspA-14" value="" style="rounded=1;whiteSpace=wrap;html=1;fillColor=#fff2cc;strokeColor=none;shadow=1;" vertex="1" parent="EZjQNCP_da3x3xnNHspA-13">
          <mxGeometry width="115" height="140" as="geometry" />
        </mxCell>
        <mxCell id="EZjQNCP_da3x3xnNHspA-15" value="" style="points=[[0.35,0,0],[0.98,0.51,0],[1,0.71,0],[0.67,1,0],[0,0.795,0],[0,0.65,0]];verticalLabelPosition=bottom;sketch=0;html=1;verticalAlign=top;aspect=fixed;align=center;pointerEvents=1;shape=mxgraph.cisco19.user;fillColor=light-dark(#001f60, #7cc1df);strokeColor=none;shadow=1;" vertex="1" parent="EZjQNCP_da3x3xnNHspA-13">
          <mxGeometry x="30" y="30" width="52.708333333333336" height="52.708333333333336" as="geometry" />
        </mxCell>
        <mxCell id="EZjQNCP_da3x3xnNHspA-16" value="&lt;p style=&quot;margin: 0px; padding: 0px; user-select: text; -webkit-user-drag: none; -webkit-tap-highlight-color: transparent; font-family: Calibri; font-size: 13.3333px;&quot;&gt;&lt;b&gt;User Interface&lt;/b&gt;&lt;/p&gt;" style="text;html=1;align=center;verticalAlign=middle;whiteSpace=wrap;rounded=0;labelBackgroundColor=none;" vertex="1" parent="EZjQNCP_da3x3xnNHspA-13">
          <mxGeometry x="5" y="100" width="110" height="30" as="geometry" />
        </mxCell>
        <mxCell id="EZjQNCP_da3x3xnNHspA-17" value="" style="group" vertex="1" connectable="0" parent="1">
          <mxGeometry x="1295" y="795" width="115" height="170" as="geometry" />
        </mxCell>
        <mxCell id="EZjQNCP_da3x3xnNHspA-18" value="" style="rounded=1;whiteSpace=wrap;html=1;fillColor=#ffe6cc;strokeColor=none;shadow=1;" vertex="1" parent="EZjQNCP_da3x3xnNHspA-17">
          <mxGeometry width="115" height="140" as="geometry" />
        </mxCell>
        <mxCell id="EZjQNCP_da3x3xnNHspA-19" value="" style="verticalLabelPosition=bottom;verticalAlign=top;html=1;shape=mxgraph.basic.tick;fillColor=#001F60;" vertex="1" parent="EZjQNCP_da3x3xnNHspA-17">
          <mxGeometry x="30" y="25" width="60" height="50" as="geometry" />
        </mxCell>
        <mxCell id="EZjQNCP_da3x3xnNHspA-20" value="&lt;p style=&quot;margin: 0px; padding: 0px; user-select: text; -webkit-user-drag: none; -webkit-tap-highlight-color: transparent; font-family: Calibri; font-size: 13.3333px;&quot;&gt;&lt;b&gt;Validation and Conflict Solving&lt;/b&gt;&lt;/p&gt;" style="text;html=1;align=center;verticalAlign=middle;whiteSpace=wrap;rounded=0;labelBackgroundColor=none;" vertex="1" parent="EZjQNCP_da3x3xnNHspA-17">
          <mxGeometry x="2.5" y="90" width="110" height="30" as="geometry" />
        </mxCell>
        <mxCell id="EZjQNCP_da3x3xnNHspA-21" value="Submit JSON" style="text;html=1;align=center;verticalAlign=middle;resizable=0;points=[];autosize=1;strokeColor=none;fillColor=none;fontStyle=0" vertex="1" parent="EZjQNCP_da3x3xnNHspA-17">
          <mxGeometry x="-60" y="140" width="100" height="30" as="geometry" />
        </mxCell>
        <mxCell id="EZjQNCP_da3x3xnNHspA-22" value="" style="group" vertex="1" connectable="0" parent="1">
          <mxGeometry x="605.38" y="505" width="240" height="60" as="geometry" />
        </mxCell>
        <mxCell id="EZjQNCP_da3x3xnNHspA-23" value="" style="rounded=1;whiteSpace=wrap;html=1;strokeColor=#001F60;strokeWidth=3;" vertex="1" parent="EZjQNCP_da3x3xnNHspA-22">
          <mxGeometry x="-70" width="310" height="60" as="geometry" />
        </mxCell>
        <mxCell id="EZjQNCP_da3x3xnNHspA-24" value="&lt;span style=&quot;font-size: 16px;&quot;&gt;&lt;b&gt;Applications in Supermicro box&lt;/b&gt;&lt;/span&gt;" style="text;html=1;align=center;verticalAlign=middle;resizable=0;points=[];autosize=1;strokeColor=none;fillColor=none;" vertex="1" parent="EZjQNCP_da3x3xnNHspA-22">
          <mxGeometry x="-45" y="15" width="260" height="30" as="geometry" />
        </mxCell>
        <mxCell id="EZjQNCP_da3x3xnNHspA-25" value="" style="group" vertex="1" connectable="0" parent="1">
          <mxGeometry x="1060" y="512.5" width="220" height="60" as="geometry" />
        </mxCell>
        <mxCell id="EZjQNCP_da3x3xnNHspA-26" value="" style="rounded=1;whiteSpace=wrap;html=1;strokeColor=#001F60;strokeWidth=3;" vertex="1" parent="EZjQNCP_da3x3xnNHspA-25">
          <mxGeometry x="-70" width="290" height="60" as="geometry" />
        </mxCell>
        <mxCell id="EZjQNCP_da3x3xnNHspA-27" value="&lt;span style=&quot;font-size: 16px;&quot;&gt;&lt;b&gt;Applications in GPU machine&lt;/b&gt;&lt;/span&gt;" style="text;html=1;align=center;verticalAlign=middle;resizable=0;points=[];autosize=1;strokeColor=none;fillColor=none;" vertex="1" parent="EZjQNCP_da3x3xnNHspA-25">
          <mxGeometry x="-40.010000000000005" y="15" width="250" height="30" as="geometry" />
        </mxCell>
        <mxCell id="EZjQNCP_da3x3xnNHspA-28" value="" style="endArrow=none;dashed=1;html=1;rounded=0;strokeColor=#001F60;strokeWidth=3;" edge="1" parent="1">
          <mxGeometry width="50" height="50" relative="1" as="geometry">
            <mxPoint x="880" y="965" as="sourcePoint" />
            <mxPoint x="880" y="505" as="targetPoint" />
          </mxGeometry>
        </mxCell>
        <mxCell id="EZjQNCP_da3x3xnNHspA-29" value="" style="endArrow=none;dashed=1;html=1;rounded=0;strokeColor=#001F60;strokeWidth=3;" edge="1" parent="1">
          <mxGeometry width="50" height="50" relative="1" as="geometry">
            <mxPoint x="390" y="1285" as="sourcePoint" />
            <mxPoint x="1430" y="1285" as="targetPoint" />
          </mxGeometry>
        </mxCell>
        <mxCell id="EZjQNCP_da3x3xnNHspA-30" value="" style="endArrow=none;dashed=1;html=1;rounded=0;strokeColor=#001F60;strokeWidth=3;" edge="1" parent="1">
          <mxGeometry width="50" height="50" relative="1" as="geometry">
            <mxPoint x="940" y="965" as="sourcePoint" />
            <mxPoint x="940" y="505" as="targetPoint" />
          </mxGeometry>
        </mxCell>
        <mxCell id="EZjQNCP_da3x3xnNHspA-31" value="" style="group" vertex="1" connectable="0" parent="1">
          <mxGeometry x="390" y="1095" width="160" height="60" as="geometry" />
        </mxCell>
        <mxCell id="EZjQNCP_da3x3xnNHspA-32" value="" style="rounded=1;whiteSpace=wrap;html=1;strokeColor=#001F60;strokeWidth=3;" vertex="1" parent="EZjQNCP_da3x3xnNHspA-31">
          <mxGeometry width="160" height="60" as="geometry" />
        </mxCell>
        <mxCell id="EZjQNCP_da3x3xnNHspA-33" value="&lt;span style=&quot;font-size: 16px;&quot;&gt;&lt;b&gt;Control Plane&lt;/b&gt;&lt;/span&gt;" style="text;html=1;align=center;verticalAlign=middle;resizable=0;points=[];autosize=1;strokeColor=none;fillColor=none;" vertex="1" parent="EZjQNCP_da3x3xnNHspA-31">
          <mxGeometry x="15" y="15" width="130" height="30" as="geometry" />
        </mxCell>
        <mxCell id="EZjQNCP_da3x3xnNHspA-34" value="" style="group" vertex="1" connectable="0" parent="1">
          <mxGeometry x="390" y="1375.75" width="180" height="60" as="geometry" />
        </mxCell>
        <mxCell id="EZjQNCP_da3x3xnNHspA-35" value="" style="rounded=1;whiteSpace=wrap;html=1;strokeColor=#001F60;strokeWidth=3;" vertex="1" parent="EZjQNCP_da3x3xnNHspA-34">
          <mxGeometry width="160.97560975609755" height="60" as="geometry" />
        </mxCell>
        <mxCell id="EZjQNCP_da3x3xnNHspA-36" value="&lt;span style=&quot;font-size: 16px;&quot;&gt;&lt;b&gt;Data Plane&lt;/b&gt;&lt;/span&gt;" style="text;html=1;align=center;verticalAlign=middle;resizable=0;points=[];autosize=1;strokeColor=none;fillColor=none;" vertex="1" parent="EZjQNCP_da3x3xnNHspA-34">
          <mxGeometry x="25.48560975609756" y="15" width="110" height="30" as="geometry" />
        </mxCell>
        <mxCell id="EZjQNCP_da3x3xnNHspA-37" value="&lt;span style=&quot;font-size: 14px;&quot;&gt;&lt;b&gt;REST API&lt;/b&gt;&lt;/span&gt;" style="text;html=1;align=center;verticalAlign=middle;resizable=0;points=[];autosize=1;strokeColor=none;fillColor=none;rotation=0;opacity=0;" vertex="1" parent="1">
          <mxGeometry x="1075" y="975" width="90" height="30" as="geometry" />
        </mxCell>
        <mxCell id="EZjQNCP_da3x3xnNHspA-38" value="&lt;span style=&quot;font-size: 14px;&quot;&gt;&lt;b&gt;OpenFlow&lt;/b&gt;&lt;/span&gt;" style="text;html=1;align=center;verticalAlign=middle;resizable=0;points=[];autosize=1;strokeColor=none;fillColor=none;rotation=0;" vertex="1" parent="1">
          <mxGeometry x="1070" y="1245" width="90" height="30" as="geometry" />
        </mxCell>
        <mxCell id="EZjQNCP_da3x3xnNHspA-39" value="&lt;span style=&quot;font-size: 14px;&quot;&gt;&lt;span&gt;Northbound API&lt;/span&gt;&lt;/span&gt;" style="text;html=1;align=center;verticalAlign=middle;resizable=0;points=[];autosize=1;strokeColor=none;fillColor=none;rotation=0;fontStyle=2" vertex="1" parent="1">
          <mxGeometry x="624.38" y="975" width="120" height="30" as="geometry" />
        </mxCell>
        <mxCell id="EZjQNCP_da3x3xnNHspA-40" value="&lt;span style=&quot;font-size: 14px;&quot;&gt;&lt;span&gt;Southbound API&lt;/span&gt;&lt;/span&gt;" style="text;html=1;align=center;verticalAlign=middle;resizable=0;points=[];autosize=1;strokeColor=none;fillColor=none;rotation=0;fontStyle=2" vertex="1" parent="1">
          <mxGeometry x="629.38" y="1245" width="120" height="30" as="geometry" />
        </mxCell>
        <mxCell id="EZjQNCP_da3x3xnNHspA-41" value="&lt;b&gt;&lt;font style=&quot;font-size: 14px;&quot;&gt;ONOS Controller with applications:&lt;/font&gt;&lt;/b&gt;&lt;div&gt;&lt;span style=&quot;font-size: 14px;&quot;&gt;&lt;b&gt;ONOS Intent Framework&lt;/b&gt;&lt;/span&gt;&lt;/div&gt;&lt;div&gt;&lt;span style=&quot;font-size: 14px;&quot;&gt;&lt;b&gt;ONOS Kafka&lt;/b&gt;&lt;/span&gt;&lt;/div&gt;" style="text;html=1;align=center;verticalAlign=middle;resizable=0;points=[];autosize=1;strokeColor=none;fillColor=none;" vertex="1" parent="1">
          <mxGeometry x="775.38" y="1165" width="260" height="60" as="geometry" />
        </mxCell>
        <mxCell id="EZjQNCP_da3x3xnNHspA-42" value="Users&#39; intent in NL" style="text;html=1;align=center;verticalAlign=middle;resizable=0;points=[];autosize=1;strokeColor=none;fillColor=none;fontStyle=0" vertex="1" parent="1">
          <mxGeometry x="750" y="655" width="120" height="30" as="geometry" />
        </mxCell>
        <mxCell id="EZjQNCP_da3x3xnNHspA-43" value="Few-shot&amp;nbsp;&lt;span style=&quot;background-color: transparent; color: light-dark(rgb(0, 0, 0), rgb(255, 255, 255));&quot;&gt;examples&lt;/span&gt;" style="text;html=1;align=center;verticalAlign=middle;resizable=0;points=[];autosize=1;strokeColor=none;fillColor=none;fontStyle=0" vertex="1" parent="1">
          <mxGeometry x="1150" y="705" width="130" height="30" as="geometry" />
        </mxCell>
        <mxCell id="EZjQNCP_da3x3xnNHspA-44" value="Intent&amp;nbsp;&lt;span style=&quot;background-color: transparent; color: light-dark(rgb(0, 0, 0), rgb(255, 255, 255));&quot;&gt;monitor&amp;nbsp;&lt;/span&gt;&lt;span style=&quot;background-color: transparent; color: light-dark(rgb(0, 0, 0), rgb(255, 255, 255));&quot;&gt;&amp;amp; reroute&lt;/span&gt;" style="text;html=1;align=center;verticalAlign=middle;resizable=0;points=[];autosize=1;strokeColor=none;fillColor=none;fontStyle=0" vertex="1" parent="1">
          <mxGeometry x="540" y="935" width="150" height="30" as="geometry" />
        </mxCell>
        <mxCell id="EZjQNCP_da3x3xnNHspA-45" value="" style="group;shadow=1;rounded=0;" vertex="1" connectable="0" parent="1">
          <mxGeometry x="380" y="745" width="160" height="60" as="geometry" />
        </mxCell>
        <mxCell id="EZjQNCP_da3x3xnNHspA-46" value="" style="rounded=1;whiteSpace=wrap;html=1;strokeColor=#001F60;strokeWidth=3;" vertex="1" parent="EZjQNCP_da3x3xnNHspA-45">
          <mxGeometry width="160" height="60" as="geometry" />
        </mxCell>
        <mxCell id="EZjQNCP_da3x3xnNHspA-47" value="&lt;span style=&quot;font-size: 16px;&quot;&gt;&lt;b&gt;Application Plane&lt;/b&gt;&lt;/span&gt;" style="text;html=1;align=center;verticalAlign=middle;resizable=0;points=[];autosize=1;strokeColor=none;fillColor=none;" vertex="1" parent="EZjQNCP_da3x3xnNHspA-45">
          <mxGeometry y="15" width="160" height="30" as="geometry" />
        </mxCell>
        <mxCell id="EZjQNCP_da3x3xnNHspA-48" value="" style="verticalLabelPosition=bottom;aspect=fixed;html=1;verticalAlign=top;strokeColor=none;align=center;outlineConnect=0;shape=mxgraph.citrix.switch;shadow=1;" vertex="1" parent="1">
          <mxGeometry x="749.38" y="1385" width="92" height="41.5" as="geometry" />
        </mxCell>
        <mxCell id="EZjQNCP_da3x3xnNHspA-49" value="" style="verticalLabelPosition=bottom;sketch=0;aspect=fixed;html=1;verticalAlign=top;strokeColor=none;align=center;outlineConnect=0;shape=mxgraph.citrix.switch;shadow=1;" vertex="1" parent="1">
          <mxGeometry x="859.38" y="1485.75" width="92" height="41.5" as="geometry" />
        </mxCell>
        <mxCell id="EZjQNCP_da3x3xnNHspA-50" value="" style="verticalLabelPosition=bottom;sketch=0;aspect=fixed;html=1;verticalAlign=top;strokeColor=none;align=center;outlineConnect=0;shape=mxgraph.citrix.switch;shadow=1;" vertex="1" parent="1">
          <mxGeometry x="864" y="1305" width="92" height="41.5" as="geometry" />
        </mxCell>
        <mxCell id="EZjQNCP_da3x3xnNHspA-51" value="" style="verticalLabelPosition=bottom;sketch=0;aspect=fixed;html=1;verticalAlign=top;strokeColor=none;align=center;outlineConnect=0;shape=mxgraph.citrix.switch;shadow=1;" vertex="1" parent="1">
          <mxGeometry x="970" y="1385" width="92" height="41.5" as="geometry" />
        </mxCell>
        <mxCell id="EZjQNCP_da3x3xnNHspA-52" value="" style="fontColor=#0066CC;verticalAlign=top;verticalLabelPosition=bottom;labelPosition=center;align=center;html=1;outlineConnect=0;fillColor=#CCCCCC;strokeColor=#6881B3;gradientColor=none;gradientDirection=north;strokeWidth=2;shape=mxgraph.networks.pc;shadow=1;" vertex="1" parent="1">
          <mxGeometry x="649.38" y="1305" width="70" height="60" as="geometry" />
        </mxCell>
        <mxCell id="EZjQNCP_da3x3xnNHspA-53" value="" style="fontColor=#0066CC;verticalAlign=top;verticalLabelPosition=bottom;labelPosition=center;align=center;html=1;outlineConnect=0;fillColor=#CCCCCC;strokeColor=#6881B3;gradientColor=none;gradientDirection=north;strokeWidth=2;shape=mxgraph.networks.pc;shadow=1;" vertex="1" parent="1">
          <mxGeometry x="644.38" y="1446.38" width="70" height="60" as="geometry" />
        </mxCell>
        <mxCell id="EZjQNCP_da3x3xnNHspA-54" value="" style="fontColor=#0066CC;verticalAlign=top;verticalLabelPosition=bottom;labelPosition=center;align=center;html=1;outlineConnect=0;fillColor=#CCCCCC;strokeColor=#6881B3;gradientColor=none;gradientDirection=north;strokeWidth=2;shape=mxgraph.networks.pc;shadow=1;" vertex="1" parent="1">
          <mxGeometry x="1115" y="1446.38" width="70" height="60" as="geometry" />
        </mxCell>
        <mxCell id="EZjQNCP_da3x3xnNHspA-55" value="" style="fontColor=#0066CC;verticalAlign=top;verticalLabelPosition=bottom;labelPosition=center;align=center;html=1;outlineConnect=0;fillColor=#CCCCCC;strokeColor=#6881B3;gradientColor=none;gradientDirection=north;strokeWidth=2;shape=mxgraph.networks.pc;shadow=1;" vertex="1" parent="1">
          <mxGeometry x="1112.5" y="1305" width="70" height="60" as="geometry" />
        </mxCell>
        <mxCell id="EZjQNCP_da3x3xnNHspA-56" value="Switch 1" style="text;html=1;align=center;verticalAlign=middle;resizable=0;points=[];autosize=1;strokeColor=none;fillColor=none;" vertex="1" parent="1">
          <mxGeometry x="735" y="1429.25" width="70" height="30" as="geometry" />
        </mxCell>
        <mxCell id="EZjQNCP_da3x3xnNHspA-57" value="Switch 2" style="text;html=1;align=center;verticalAlign=middle;resizable=0;points=[];autosize=1;strokeColor=none;fillColor=none;" vertex="1" parent="1">
          <mxGeometry x="948.75" y="1310.75" width="70" height="30" as="geometry" />
        </mxCell>
        <mxCell id="EZjQNCP_da3x3xnNHspA-58" value="Switch 3" style="text;html=1;align=center;verticalAlign=middle;resizable=0;points=[];autosize=1;strokeColor=none;fillColor=none;" vertex="1" parent="1">
          <mxGeometry x="869.38" y="1527.25" width="70" height="30" as="geometry" />
        </mxCell>
        <mxCell id="EZjQNCP_da3x3xnNHspA-59" value="Switch 4" style="text;html=1;align=center;verticalAlign=middle;resizable=0;points=[];autosize=1;strokeColor=none;fillColor=none;" vertex="1" parent="1">
          <mxGeometry x="992" y="1426.5" width="70" height="30" as="geometry" />
        </mxCell>
        <mxCell id="EZjQNCP_da3x3xnNHspA-60" value="Host 1" style="text;html=1;align=center;verticalAlign=middle;resizable=0;points=[];autosize=1;strokeColor=none;fillColor=none;" vertex="1" parent="1">
          <mxGeometry x="584.38" y="1310.75" width="60" height="30" as="geometry" />
        </mxCell>
        <mxCell id="EZjQNCP_da3x3xnNHspA-61" value="Host 2" style="text;html=1;align=center;verticalAlign=middle;resizable=0;points=[];autosize=1;strokeColor=none;fillColor=none;" vertex="1" parent="1">
          <mxGeometry x="584.38" y="1461.3899999999999" width="60" height="30" as="geometry" />
        </mxCell>
        <mxCell id="EZjQNCP_da3x3xnNHspA-62" value="Host 3" style="text;html=1;align=center;verticalAlign=middle;resizable=0;points=[];autosize=1;strokeColor=none;fillColor=none;" vertex="1" parent="1">
          <mxGeometry x="1185" y="1320" width="60" height="30" as="geometry" />
        </mxCell>
        <mxCell id="EZjQNCP_da3x3xnNHspA-63" value="Host 4" style="text;html=1;align=center;verticalAlign=middle;resizable=0;points=[];autosize=1;strokeColor=none;fillColor=none;" vertex="1" parent="1">
          <mxGeometry x="1185" y="1465" width="60" height="30" as="geometry" />
        </mxCell>
        <mxCell id="EZjQNCP_da3x3xnNHspA-64" value="&lt;b&gt;&lt;font style=&quot;font-size: 14px;&quot;&gt;OVS Switches&lt;/font&gt;&lt;/b&gt;" style="text;html=1;align=center;verticalAlign=middle;resizable=0;points=[];autosize=1;strokeColor=none;fillColor=none;" vertex="1" parent="1">
          <mxGeometry x="845.38" y="1405" width="120" height="30" as="geometry" />
        </mxCell>
        <mxCell id="EZjQNCP_da3x3xnNHspA-65" value="&lt;b&gt;&lt;font style=&quot;font-size: 14px;&quot;&gt;Hybrid Mesh/Tree Topology&lt;/font&gt;&lt;/b&gt;" style="text;html=1;align=center;verticalAlign=middle;resizable=0;points=[];autosize=1;strokeColor=none;fillColor=none;" vertex="1" parent="1">
          <mxGeometry x="1225" y="1390.75" width="210" height="30" as="geometry" />
        </mxCell>
        <mxCell id="EZjQNCP_da3x3xnNHspA-66" value="" style="endArrow=none;dashed=1;html=1;rounded=0;strokeColor=#001F60;strokeWidth=3;" edge="1" parent="1">
          <mxGeometry width="50" height="50" relative="1" as="geometry">
            <mxPoint x="390" y="1235" as="sourcePoint" />
            <mxPoint x="1430" y="1235" as="targetPoint" />
          </mxGeometry>
        </mxCell>
        <mxCell id="EZjQNCP_da3x3xnNHspA-67" value="" style="endArrow=none;dashed=1;html=1;rounded=0;exitX=1;exitY=0.5;exitDx=0;exitDy=0;exitPerimeter=0;" edge="1" parent="1" source="EZjQNCP_da3x3xnNHspA-52" target="EZjQNCP_da3x3xnNHspA-48">
          <mxGeometry width="50" height="50" relative="1" as="geometry">
            <mxPoint x="820" y="1385" as="sourcePoint" />
            <mxPoint x="750" y="1335" as="targetPoint" />
          </mxGeometry>
        </mxCell>
        <mxCell id="EZjQNCP_da3x3xnNHspA-68" value="" style="endArrow=none;dashed=1;html=1;rounded=0;" edge="1" parent="1" source="EZjQNCP_da3x3xnNHspA-53" target="EZjQNCP_da3x3xnNHspA-48">
          <mxGeometry width="50" height="50" relative="1" as="geometry">
            <mxPoint x="720" y="1475" as="sourcePoint" />
            <mxPoint x="760" y="1345" as="targetPoint" />
          </mxGeometry>
        </mxCell>
        <mxCell id="EZjQNCP_da3x3xnNHspA-69" value="" style="endArrow=none;dashed=1;html=1;rounded=0;" edge="1" parent="1" source="EZjQNCP_da3x3xnNHspA-49" target="EZjQNCP_da3x3xnNHspA-48">
          <mxGeometry width="50" height="50" relative="1" as="geometry">
            <mxPoint x="659" y="1345" as="sourcePoint" />
            <mxPoint x="760" y="1345" as="targetPoint" />
          </mxGeometry>
        </mxCell>
        <mxCell id="EZjQNCP_da3x3xnNHspA-70" value="" style="endArrow=none;dashed=1;html=1;rounded=0;" edge="1" parent="1" source="EZjQNCP_da3x3xnNHspA-51" target="EZjQNCP_da3x3xnNHspA-49">
          <mxGeometry width="50" height="50" relative="1" as="geometry">
            <mxPoint x="1025" y="1425" as="sourcePoint" />
            <mxPoint x="800" y="1405" as="targetPoint" />
          </mxGeometry>
        </mxCell>
        <mxCell id="EZjQNCP_da3x3xnNHspA-71" value="" style="endArrow=none;dashed=1;html=1;rounded=0;" edge="1" parent="1" source="EZjQNCP_da3x3xnNHspA-50" target="EZjQNCP_da3x3xnNHspA-48">
          <mxGeometry width="50" height="50" relative="1" as="geometry">
            <mxPoint x="893" y="1496" as="sourcePoint" />
            <mxPoint x="828" y="1437" as="targetPoint" />
          </mxGeometry>
        </mxCell>
        <mxCell id="EZjQNCP_da3x3xnNHspA-72" value="" style="endArrow=none;dashed=1;html=1;rounded=0;" edge="1" parent="1" source="EZjQNCP_da3x3xnNHspA-50" target="EZjQNCP_da3x3xnNHspA-51">
          <mxGeometry width="50" height="50" relative="1" as="geometry">
            <mxPoint x="890" y="1357" as="sourcePoint" />
            <mxPoint x="835" y="1395" as="targetPoint" />
          </mxGeometry>
        </mxCell>
        <mxCell id="EZjQNCP_da3x3xnNHspA-73" value="" style="endArrow=none;dashed=1;html=1;rounded=0;" edge="1" parent="1" target="EZjQNCP_da3x3xnNHspA-50">
          <mxGeometry width="50" height="50" relative="1" as="geometry">
            <mxPoint x="910" y="1485" as="sourcePoint" />
            <mxPoint x="920" y="1395" as="targetPoint" />
          </mxGeometry>
        </mxCell>
        <mxCell id="EZjQNCP_da3x3xnNHspA-74" value="" style="endArrow=none;dashed=1;html=1;rounded=0;" edge="1" parent="1" source="EZjQNCP_da3x3xnNHspA-48" target="EZjQNCP_da3x3xnNHspA-51">
          <mxGeometry width="50" height="50" relative="1" as="geometry">
            <mxPoint x="870" y="1445" as="sourcePoint" />
            <mxPoint x="920" y="1395" as="targetPoint" />
          </mxGeometry>
        </mxCell>
        <mxCell id="EZjQNCP_da3x3xnNHspA-75" value="" style="endArrow=none;dashed=1;html=1;rounded=0;" edge="1" parent="1" source="EZjQNCP_da3x3xnNHspA-51" target="EZjQNCP_da3x3xnNHspA-55">
          <mxGeometry width="50" height="50" relative="1" as="geometry">
            <mxPoint x="1150" y="1455" as="sourcePoint" />
            <mxPoint x="1200" y="1405" as="targetPoint" />
          </mxGeometry>
        </mxCell>
        <mxCell id="EZjQNCP_da3x3xnNHspA-76" value="" style="endArrow=none;dashed=1;html=1;rounded=0;" edge="1" parent="1" source="EZjQNCP_da3x3xnNHspA-51" target="EZjQNCP_da3x3xnNHspA-54">
          <mxGeometry width="50" height="50" relative="1" as="geometry">
            <mxPoint x="1150" y="1455" as="sourcePoint" />
            <mxPoint x="1200" y="1405" as="targetPoint" />
          </mxGeometry>
        </mxCell>
        <mxCell id="EZjQNCP_da3x3xnNHspA-77" value="&lt;b&gt;&lt;font style=&quot;font-size: 14px;&quot;&gt;Mininet&lt;/font&gt;&lt;/b&gt;" style="text;html=1;align=center;verticalAlign=middle;resizable=0;points=[];autosize=1;strokeColor=none;fillColor=none;" vertex="1" parent="1">
          <mxGeometry x="870" y="1557.25" width="70" height="30" as="geometry" />
        </mxCell>
        <mxCell id="EZjQNCP_da3x3xnNHspA-78" value="&lt;b&gt;&lt;font style=&quot;font-size: 14px;&quot;&gt;SDN Controller&lt;/font&gt;&lt;/b&gt;" style="text;html=1;align=center;verticalAlign=middle;resizable=0;points=[];autosize=1;strokeColor=none;fillColor=none;" vertex="1" parent="1">
          <mxGeometry x="1260" y="1110" width="120" height="30" as="geometry" />
        </mxCell>
        <mxCell id="EZjQNCP_da3x3xnNHspA-79" value="" style="endArrow=none;dashed=1;html=1;rounded=0;strokeColor=#001F60;strokeWidth=3;" edge="1" parent="1">
          <mxGeometry width="50" height="50" relative="1" as="geometry">
            <mxPoint x="390" y="1015" as="sourcePoint" />
            <mxPoint x="1430" y="1015" as="targetPoint" />
          </mxGeometry>
        </mxCell>
        <mxCell id="EZjQNCP_da3x3xnNHspA-80" value="" style="endArrow=none;dashed=1;html=1;rounded=0;strokeColor=#001F60;strokeWidth=3;" edge="1" parent="1">
          <mxGeometry width="50" height="50" relative="1" as="geometry">
            <mxPoint x="390" y="965" as="sourcePoint" />
            <mxPoint x="1430" y="965" as="targetPoint" />
          </mxGeometry>
        </mxCell>
        <mxCell id="EZjQNCP_da3x3xnNHspA-81" value="" style="shape=flexArrow;endArrow=classic;startArrow=classic;html=1;rounded=0;fillColor=#001F60;strokeColor=#000000;entryX=0.515;entryY=1;entryDx=0;entryDy=0;entryPerimeter=0;" edge="1" parent="1" target="EZjQNCP_da3x3xnNHspA-41">
          <mxGeometry width="100" height="100" relative="1" as="geometry">
            <mxPoint x="910" y="1295" as="sourcePoint" />
            <mxPoint x="910" y="1235" as="targetPoint" />
            <Array as="points">
              <mxPoint x="910" y="1265" />
            </Array>
          </mxGeometry>
        </mxCell>
        <mxCell id="EZjQNCP_da3x3xnNHspA-82" value="" style="shape=flexArrow;endArrow=classic;startArrow=classic;html=1;rounded=0;fillColor=#001F60;strokeColor=#000000;entryX=0.515;entryY=1;entryDx=0;entryDy=0;entryPerimeter=0;" edge="1" parent="1">
          <mxGeometry width="100" height="100" relative="1" as="geometry">
            <mxPoint x="909.78" y="1025" as="sourcePoint" />
            <mxPoint x="909.78" y="955" as="targetPoint" />
            <Array as="points">
              <mxPoint x="909.78" y="995" />
            </Array>
          </mxGeometry>
        </mxCell>
        <mxCell id="EZjQNCP_da3x3xnNHspA-83" value="&lt;span style=&quot;font-size: 14px;&quot;&gt;&lt;span&gt;HTTP&lt;/span&gt;&lt;/span&gt;" style="text;html=1;align=center;verticalAlign=middle;resizable=0;points=[];autosize=1;strokeColor=none;fillColor=none;rotation=-90;fontStyle=2" vertex="1" parent="1">
          <mxGeometry x="880" y="865" width="60" height="30" as="geometry" />
        </mxCell>
        <mxCell id="EZjQNCP_da3x3xnNHspA-84" value="&lt;span style=&quot;font-size: 14px;&quot;&gt;&lt;b&gt;FastAPI&lt;/b&gt;&lt;/span&gt;" style="text;html=1;align=center;verticalAlign=middle;resizable=0;points=[];autosize=1;strokeColor=none;fillColor=none;rotation=-90;opacity=0;" vertex="1" parent="1">
          <mxGeometry x="870" y="542.5" width="80" height="30" as="geometry" />
        </mxCell>
        <mxCell id="EZjQNCP_da3x3xnNHspA-85" value="&lt;span style=&quot;font-size: 14px;&quot;&gt;&lt;b&gt;NAS&lt;/b&gt;&lt;/span&gt;" style="text;html=1;align=center;verticalAlign=middle;resizable=0;points=[];autosize=1;strokeColor=none;fillColor=none;" vertex="1" parent="1">
          <mxGeometry x="1327.5" y="595" width="50" height="30" as="geometry" />
        </mxCell>
        <mxCell id="EZjQNCP_da3x3xnNHspA-86" value="" style="endArrow=classic;html=1;rounded=0;exitX=1;exitY=0.25;exitDx=0;exitDy=0;entryX=0;entryY=0.25;entryDx=0;entryDy=0;" edge="1" parent="1">
          <mxGeometry width="50" height="50" relative="1" as="geometry">
            <mxPoint x="744.38" y="685" as="sourcePoint" />
            <mxPoint x="1021.2499999999999" y="685" as="targetPoint" />
          </mxGeometry>
        </mxCell>
        <mxCell id="EZjQNCP_da3x3xnNHspA-87" value="" style="endArrow=classic;html=1;rounded=0;exitX=1;exitY=0.25;exitDx=0;exitDy=0;entryX=0;entryY=0.25;entryDx=0;entryDy=0;" edge="1" parent="1">
          <mxGeometry width="50" height="50" relative="1" as="geometry">
            <mxPoint x="1136.88" y="675" as="sourcePoint" />
            <mxPoint x="1293.13" y="675" as="targetPoint" />
          </mxGeometry>
        </mxCell>
        <mxCell id="EZjQNCP_da3x3xnNHspA-88" value="Compare similarity" style="text;html=1;align=center;verticalAlign=middle;resizable=0;points=[];autosize=1;strokeColor=none;fillColor=none;fontStyle=0" vertex="1" parent="1">
          <mxGeometry x="1155" y="645" width="120" height="30" as="geometry" />
        </mxCell>
        <mxCell id="EZjQNCP_da3x3xnNHspA-89" value="" style="endArrow=classic;html=1;rounded=0;exitX=1;exitY=0.25;exitDx=0;exitDy=0;entryX=0;entryY=0.25;entryDx=0;entryDy=0;" edge="1" parent="1">
          <mxGeometry width="50" height="50" relative="1" as="geometry">
            <mxPoint x="1293" y="735" as="sourcePoint" />
            <mxPoint x="1137" y="735" as="targetPoint" />
          </mxGeometry>
        </mxCell>
        <mxCell id="EZjQNCP_da3x3xnNHspA-90" value="" style="endArrow=classic;html=1;rounded=0;" edge="1" parent="1">
          <mxGeometry width="50" height="50" relative="1" as="geometry">
            <mxPoint x="988.87" y="962.2" as="sourcePoint" />
            <mxPoint x="1020" y="725" as="targetPoint" />
            <Array as="points">
              <mxPoint x="989" y="725" />
            </Array>
          </mxGeometry>
        </mxCell>
        <mxCell id="EZjQNCP_da3x3xnNHspA-91" value="Live Telemetry" style="text;html=1;align=center;verticalAlign=middle;resizable=0;points=[];autosize=1;strokeColor=none;fillColor=none;fontStyle=0;rotation=-90;" vertex="1" parent="1">
          <mxGeometry x="921.88" y="820" width="100" height="30" as="geometry" />
        </mxCell>
        <mxCell id="EZjQNCP_da3x3xnNHspA-92" value="" style="group" vertex="1" connectable="0" parent="1">
          <mxGeometry x="1021.88" y="795" width="115" height="140" as="geometry" />
        </mxCell>
        <mxCell id="EZjQNCP_da3x3xnNHspA-93" value="" style="rounded=1;whiteSpace=wrap;html=1;fillColor=#f8cecc;strokeColor=none;shadow=1;" vertex="1" parent="EZjQNCP_da3x3xnNHspA-92">
          <mxGeometry width="115" height="140" as="geometry" />
        </mxCell>
        <mxCell id="EZjQNCP_da3x3xnNHspA-94" value="" style="sketch=0;outlineConnect=0;fontColor=#232F3E;gradientColor=none;fillColor=#001F60;strokeColor=none;dashed=0;verticalLabelPosition=bottom;verticalAlign=top;align=center;html=1;fontSize=12;fontStyle=0;aspect=fixed;pointerEvents=1;shape=mxgraph.aws4.sagemaker_model;" vertex="1" parent="EZjQNCP_da3x3xnNHspA-92">
          <mxGeometry x="26.5" y="28" width="62" height="62" as="geometry" />
        </mxCell>
        <mxCell id="EZjQNCP_da3x3xnNHspA-95" value="&lt;p style=&quot;margin: 0px; padding: 0px; user-select: text; -webkit-user-drag: none; -webkit-tap-highlight-color: transparent; font-family: Calibri; font-size: 13.3333px;&quot;&gt;&lt;b&gt;LLM Model&lt;/b&gt;&lt;/p&gt;&lt;p style=&quot;margin: 0px; padding: 0px; user-select: text; -webkit-user-drag: none; -webkit-tap-highlight-color: transparent; font-family: Calibri; font-size: 13.3333px;&quot;&gt;&lt;b&gt;(GPT-OSS)&lt;/b&gt;&lt;/p&gt;" style="text;html=1;align=center;verticalAlign=middle;whiteSpace=wrap;rounded=0;labelBackgroundColor=none;" vertex="1" parent="EZjQNCP_da3x3xnNHspA-92">
          <mxGeometry x="5" y="100" width="110" height="30" as="geometry" />
        </mxCell>
        <mxCell id="EZjQNCP_da3x3xnNHspA-96" value="" style="group" vertex="1" connectable="0" parent="1">
          <mxGeometry x="631.88" y="795" width="115" height="140" as="geometry" />
        </mxCell>
        <mxCell id="EZjQNCP_da3x3xnNHspA-97" value="" style="rounded=1;whiteSpace=wrap;html=1;fillColor=#e1d5e7;strokeColor=none;shadow=1;container=0;" vertex="1" parent="EZjQNCP_da3x3xnNHspA-96">
          <mxGeometry width="115" height="140" as="geometry" />
        </mxCell>
        <mxCell id="EZjQNCP_da3x3xnNHspA-98" value="" style="html=1;verticalLabelPosition=bottom;align=center;labelBackgroundColor=#ffffff;verticalAlign=top;strokeWidth=6;strokeColor=#001F60;shadow=0;dashed=0;shape=mxgraph.ios7.icons.monitor;fillColor=#E1D5E7;container=0;" vertex="1" parent="EZjQNCP_da3x3xnNHspA-96">
          <mxGeometry x="27.5" y="30" width="60" height="50" as="geometry" />
        </mxCell>
        <mxCell id="EZjQNCP_da3x3xnNHspA-99" value="&lt;p style=&quot;margin: 0px; padding: 0px; user-select: text; -webkit-user-drag: none; -webkit-tap-highlight-color: transparent; font-family: Calibri; font-size: 13.3333px;&quot;&gt;&lt;b&gt;IMR&lt;/b&gt;&lt;/p&gt;" style="text;html=1;align=center;verticalAlign=middle;whiteSpace=wrap;rounded=0;labelBackgroundColor=none;container=0;" vertex="1" parent="EZjQNCP_da3x3xnNHspA-96">
          <mxGeometry x="2.5" y="100" width="110" height="30" as="geometry" />
        </mxCell>
        <mxCell id="EZjQNCP_da3x3xnNHspA-100" value="" style="endArrow=classic;html=1;rounded=0;exitX=0.5;exitY=1;exitDx=0;exitDy=0;entryX=0.5;entryY=0;entryDx=0;entryDy=0;" edge="1" parent="1" source="EZjQNCP_da3x3xnNHspA-10" target="EZjQNCP_da3x3xnNHspA-93">
          <mxGeometry width="50" height="50" relative="1" as="geometry">
            <mxPoint x="1050" y="815" as="sourcePoint" />
            <mxPoint x="1100" y="765" as="targetPoint" />
          </mxGeometry>
        </mxCell>
        <mxCell id="EZjQNCP_da3x3xnNHspA-101" value="Prompt" style="text;html=1;align=center;verticalAlign=middle;resizable=0;points=[];autosize=1;strokeColor=none;fillColor=none;fontStyle=0" vertex="1" parent="1">
          <mxGeometry x="1076.88" y="765" width="60" height="30" as="geometry" />
        </mxCell>
        <mxCell id="EZjQNCP_da3x3xnNHspA-102" value="" style="endArrow=classic;startArrow=classic;html=1;rounded=0;entryX=0.5;entryY=1;entryDx=0;entryDy=0;" edge="1" parent="1" target="EZjQNCP_da3x3xnNHspA-97">
          <mxGeometry width="50" height="50" relative="1" as="geometry">
            <mxPoint x="690" y="965" as="sourcePoint" />
            <mxPoint x="830" y="835" as="targetPoint" />
          </mxGeometry>
        </mxCell>
        <mxCell id="EZjQNCP_da3x3xnNHspA-103" value="JSON Configuration" style="text;html=1;align=center;verticalAlign=middle;resizable=0;points=[];autosize=1;strokeColor=none;fillColor=none;fontStyle=0" vertex="1" parent="1">
          <mxGeometry x="1147.5" y="815" width="130" height="30" as="geometry" />
        </mxCell>
        <mxCell id="EZjQNCP_da3x3xnNHspA-104" value="" style="endArrow=classic;html=1;rounded=0;exitX=1;exitY=0.25;exitDx=0;exitDy=0;entryX=0;entryY=0.25;entryDx=0;entryDy=0;" edge="1" parent="1">
          <mxGeometry width="50" height="50" relative="1" as="geometry">
            <mxPoint x="1136.88" y="845" as="sourcePoint" />
            <mxPoint x="1293.13" y="845" as="targetPoint" />
          </mxGeometry>
        </mxCell>
        <mxCell id="EZjQNCP_da3x3xnNHspA-105" value="" style="endArrow=classic;html=1;rounded=0;exitX=0.5;exitY=1;exitDx=0;exitDy=0;" edge="1" parent="1" source="EZjQNCP_da3x3xnNHspA-18">
          <mxGeometry width="50" height="50" relative="1" as="geometry">
            <mxPoint x="1360" y="935" as="sourcePoint" />
            <mxPoint x="1353" y="965" as="targetPoint" />
          </mxGeometry>
        </mxCell>
        <mxCell id="EZjQNCP_da3x3xnNHspA-106" value="" style="endArrow=classic;html=1;rounded=0;entryX=1;entryY=0;entryDx=0;entryDy=0;" edge="1" parent="1" target="EZjQNCP_da3x3xnNHspA-16">
          <mxGeometry width="50" height="50" relative="1" as="geometry">
            <mxPoint x="800" y="965" as="sourcePoint" />
            <mxPoint x="920" y="885" as="targetPoint" />
            <Array as="points">
              <mxPoint x="800" y="725" />
            </Array>
          </mxGeometry>
        </mxCell>
        <mxCell id="EZjQNCP_da3x3xnNHspA-107" value="Live Telemetry" style="text;html=1;align=center;verticalAlign=middle;resizable=0;points=[];autosize=1;strokeColor=none;fillColor=none;fontStyle=0;rotation=90;" vertex="1" parent="1">
          <mxGeometry x="764" y="825" width="100" height="30" as="geometry" />
        </mxCell>
        <mxCell id="EZjQNCP_da3x3xnNHspA-108" value="" style="endArrow=classic;html=1;rounded=0;entryX=0.174;entryY=0.011;entryDx=0;entryDy=0;entryPerimeter=0;" edge="1" parent="1" target="EZjQNCP_da3x3xnNHspA-5">
          <mxGeometry width="50" height="50" relative="1" as="geometry">
            <mxPoint x="710" y="624" as="sourcePoint" />
            <mxPoint x="1310" y="605" as="targetPoint" />
            <Array as="points">
              <mxPoint x="710" y="605" />
              <mxPoint x="1315" y="605" />
            </Array>
          </mxGeometry>
        </mxCell>
        <mxCell id="EZjQNCP_da3x3xnNHspA-109" value="Positive Feedback" style="text;html=1;align=center;verticalAlign=middle;resizable=0;points=[];autosize=1;strokeColor=none;fillColor=none;fontStyle=0" vertex="1" parent="1">
          <mxGeometry x="721.38" y="572.5" width="120" height="30" as="geometry" />
        </mxCell>
        <mxCell id="EZjQNCP_da3x3xnNHspA-110" value="" style="endArrow=classic;html=1;rounded=0;exitX=1;exitY=0.75;exitDx=0;exitDy=0;" edge="1" parent="1" source="EZjQNCP_da3x3xnNHspA-16">
          <mxGeometry width="50" height="50" relative="1" as="geometry">
            <mxPoint x="755" y="735" as="sourcePoint" />
            <mxPoint x="780" y="965" as="targetPoint" />
            <Array as="points">
              <mxPoint x="780" y="748" />
            </Array>
          </mxGeometry>
        </mxCell>
        <mxCell id="EZjQNCP_da3x3xnNHspA-111" value="Rollback Configuration" style="text;html=1;align=center;verticalAlign=middle;resizable=0;points=[];autosize=1;strokeColor=none;fillColor=none;fontStyle=0;rotation=90;" vertex="1" parent="1">
          <mxGeometry x="699.38" y="825" width="140" height="30" as="geometry" />
        </mxCell>
      </root>
    </mxGraphModel>
  </diagram>
</mxfile>
